<mxfile host="app.diagrams.net" agent="Mozilla/5.0 (Macintosh; Intel Mac OS X 10_15_7) AppleWebKit/537.36 (KHTML, like Gecko) Chrome/127.0.0.0 Safari/537.36" version="24.7.6">
  <diagram name="第 1 页" id="-RiCPTkOiXk7MsB4Krui">
    <mxGraphModel dx="1242" dy="706" grid="1" gridSize="10" guides="1" tooltips="1" connect="1" arrows="1" fold="1" page="1" pageScale="1" pageWidth="827" pageHeight="1169" math="0" shadow="0">
      <root>
        <mxCell id="0" />
        <mxCell id="1" parent="0" />
        <mxCell id="VYYWb6D4NOVtQm_sJtVm-1" value="" style="rounded=0;whiteSpace=wrap;html=1;align=right;" vertex="1" parent="1">
          <mxGeometry x="180" y="700" width="630" height="260" as="geometry" />
        </mxCell>
        <mxCell id="VYYWb6D4NOVtQm_sJtVm-2" value="&lt;font style=&quot;font-size: 20px;&quot;&gt;基础设施&lt;/font&gt;" style="text;html=1;align=center;verticalAlign=middle;whiteSpace=wrap;rounded=0;" vertex="1" parent="1">
          <mxGeometry x="70" y="770" width="100" height="30" as="geometry" />
        </mxCell>
        <mxCell id="VYYWb6D4NOVtQm_sJtVm-7" value="" style="rounded=0;whiteSpace=wrap;html=1;align=right;" vertex="1" parent="1">
          <mxGeometry x="180" y="340" width="630" height="360" as="geometry" />
        </mxCell>
        <mxCell id="VYYWb6D4NOVtQm_sJtVm-8" value="&lt;font style=&quot;font-size: 20px;&quot;&gt;任务编排&lt;/font&gt;" style="text;html=1;align=center;verticalAlign=middle;whiteSpace=wrap;rounded=0;" vertex="1" parent="1">
          <mxGeometry x="70" y="545" width="100" height="30" as="geometry" />
        </mxCell>
        <mxCell id="VYYWb6D4NOVtQm_sJtVm-9" value="" style="rounded=0;whiteSpace=wrap;html=1;align=right;" vertex="1" parent="1">
          <mxGeometry x="180" y="190" width="630" height="150" as="geometry" />
        </mxCell>
        <mxCell id="VYYWb6D4NOVtQm_sJtVm-10" value="&lt;font style=&quot;font-size: 20px;&quot;&gt;研发平台&lt;/font&gt;" style="text;html=1;align=center;verticalAlign=middle;whiteSpace=wrap;rounded=0;" vertex="1" parent="1">
          <mxGeometry x="70" y="245" width="100" height="30" as="geometry" />
        </mxCell>
        <mxCell id="VYYWb6D4NOVtQm_sJtVm-11" value="" style="rounded=0;whiteSpace=wrap;html=1;align=right;" vertex="1" parent="1">
          <mxGeometry x="180" y="50" width="630" height="140" as="geometry" />
        </mxCell>
        <mxCell id="VYYWb6D4NOVtQm_sJtVm-12" value="&lt;font style=&quot;font-size: 20px;&quot;&gt;算法&lt;/font&gt;" style="text;html=1;align=center;verticalAlign=middle;whiteSpace=wrap;rounded=0;" vertex="1" parent="1">
          <mxGeometry x="70" y="105" width="100" height="30" as="geometry" />
        </mxCell>
        <mxCell id="VYYWb6D4NOVtQm_sJtVm-13" value="" style="rounded=0;whiteSpace=wrap;html=1;fillColor=#dae8fc;strokeColor=#6c8ebf;" vertex="1" parent="1">
          <mxGeometry x="290" y="80" width="480" height="80" as="geometry" />
        </mxCell>
        <mxCell id="VYYWb6D4NOVtQm_sJtVm-14" value="&lt;font style=&quot;font-size: 16px;&quot;&gt;AntLLM&lt;/font&gt;" style="text;html=1;align=center;verticalAlign=middle;whiteSpace=wrap;rounded=0;" vertex="1" parent="1">
          <mxGeometry x="210" y="105" width="60" height="30" as="geometry" />
        </mxCell>
        <mxCell id="VYYWb6D4NOVtQm_sJtVm-15" value="&lt;span style=&quot;font-size: 15px;&quot;&gt;统一代码库&lt;/span&gt;" style="rounded=0;whiteSpace=wrap;html=1;" vertex="1" parent="1">
          <mxGeometry x="310" y="97.5" width="120" height="45" as="geometry" />
        </mxCell>
        <mxCell id="VYYWb6D4NOVtQm_sJtVm-16" value="&lt;font style=&quot;font-size: 15px;&quot;&gt;Pipeline&lt;/font&gt;" style="rounded=0;whiteSpace=wrap;html=1;" vertex="1" parent="1">
          <mxGeometry x="460" y="97.5" width="120" height="45" as="geometry" />
        </mxCell>
        <mxCell id="VYYWb6D4NOVtQm_sJtVm-17" value="&lt;font style=&quot;font-size: 15px;&quot;&gt;Checkpoint&lt;/font&gt;" style="rounded=0;whiteSpace=wrap;html=1;" vertex="1" parent="1">
          <mxGeometry x="610" y="97.5" width="120" height="45" as="geometry" />
        </mxCell>
        <mxCell id="VYYWb6D4NOVtQm_sJtVm-18" value="&lt;font style=&quot;font-size: 16px;&quot;&gt;AI Studio&lt;/font&gt;" style="text;html=1;align=center;verticalAlign=middle;whiteSpace=wrap;rounded=0;" vertex="1" parent="1">
          <mxGeometry x="205" y="245" width="70" height="30" as="geometry" />
        </mxCell>
        <mxCell id="VYYWb6D4NOVtQm_sJtVm-20" value="" style="rounded=0;whiteSpace=wrap;html=1;fillColor=#d5e8d4;strokeColor=#82b366;" vertex="1" parent="1">
          <mxGeometry x="290" y="210" width="480" height="100" as="geometry" />
        </mxCell>
        <mxCell id="VYYWb6D4NOVtQm_sJtVm-32" value="&lt;font style=&quot;font-size: 15px;&quot;&gt;研发标准化&lt;/font&gt;" style="rounded=0;whiteSpace=wrap;html=1;" vertex="1" parent="1">
          <mxGeometry x="310" y="237.5" width="120" height="45" as="geometry" />
        </mxCell>
        <mxCell id="VYYWb6D4NOVtQm_sJtVm-33" value="&lt;font style=&quot;font-size: 15px;&quot;&gt;镜像标准化&lt;/font&gt;" style="rounded=0;whiteSpace=wrap;html=1;" vertex="1" parent="1">
          <mxGeometry x="460" y="237.5" width="120" height="45" as="geometry" />
        </mxCell>
        <mxCell id="VYYWb6D4NOVtQm_sJtVm-34" value="&lt;font style=&quot;font-size: 15px;&quot;&gt;代码扫描卡点&lt;/font&gt;" style="rounded=0;whiteSpace=wrap;html=1;" vertex="1" parent="1">
          <mxGeometry x="610" y="237.5" width="120" height="45" as="geometry" />
        </mxCell>
        <mxCell id="VYYWb6D4NOVtQm_sJtVm-36" value="&lt;font style=&quot;font-size: 16px;&quot;&gt;AI Studio&lt;/font&gt;" style="text;html=1;align=center;verticalAlign=middle;whiteSpace=wrap;rounded=0;" vertex="1" parent="1">
          <mxGeometry x="205" y="450" width="70" height="30" as="geometry" />
        </mxCell>
        <mxCell id="VYYWb6D4NOVtQm_sJtVm-37" value="&lt;font style=&quot;font-size: 16px;&quot;&gt;EDL&lt;/font&gt;" style="text;html=1;align=center;verticalAlign=middle;whiteSpace=wrap;rounded=0;" vertex="1" parent="1">
          <mxGeometry x="205" y="600" width="70" height="30" as="geometry" />
        </mxCell>
        <mxCell id="VYYWb6D4NOVtQm_sJtVm-40" value="" style="rounded=0;whiteSpace=wrap;html=1;fillColor=#d5e8d4;strokeColor=#82b366;" vertex="1" parent="1">
          <mxGeometry x="290" y="370" width="480" height="160" as="geometry" />
        </mxCell>
        <mxCell id="VYYWb6D4NOVtQm_sJtVm-41" value="&lt;font style=&quot;font-size: 15px;&quot;&gt;异常识别&lt;/font&gt;" style="rounded=0;whiteSpace=wrap;html=1;" vertex="1" parent="1">
          <mxGeometry x="310" y="465" width="120" height="47.5" as="geometry" />
        </mxCell>
        <mxCell id="VYYWb6D4NOVtQm_sJtVm-42" value="&lt;font style=&quot;font-size: 15px;&quot;&gt;异常采集&lt;/font&gt;" style="rounded=0;whiteSpace=wrap;html=1;" vertex="1" parent="1">
          <mxGeometry x="460" y="465" width="120" height="45" as="geometry" />
        </mxCell>
        <mxCell id="VYYWb6D4NOVtQm_sJtVm-43" value="&lt;font style=&quot;font-size: 15px;&quot;&gt;异常告警&lt;/font&gt;" style="rounded=0;whiteSpace=wrap;html=1;" vertex="1" parent="1">
          <mxGeometry x="610" y="465" width="120" height="45" as="geometry" />
        </mxCell>
        <mxCell id="VYYWb6D4NOVtQm_sJtVm-44" value="" style="rounded=0;whiteSpace=wrap;html=1;fillColor=#ffe6cc;strokeColor=#d79b00;" vertex="1" parent="1">
          <mxGeometry x="290" y="565" width="310" height="85" as="geometry" />
        </mxCell>
        <mxCell id="VYYWb6D4NOVtQm_sJtVm-45" value="&lt;font style=&quot;font-size: 15px;&quot;&gt;异常上报&lt;/font&gt;" style="rounded=0;whiteSpace=wrap;html=1;" vertex="1" parent="1">
          <mxGeometry x="310" y="583.75" width="120" height="47.5" as="geometry" />
        </mxCell>
        <mxCell id="VYYWb6D4NOVtQm_sJtVm-62" value="&lt;span style=&quot;font-size: 15px;&quot;&gt;任务重试&lt;/span&gt;" style="rounded=0;whiteSpace=wrap;html=1;" vertex="1" parent="1">
          <mxGeometry x="310" y="390" width="120" height="47.5" as="geometry" />
        </mxCell>
        <mxCell id="VYYWb6D4NOVtQm_sJtVm-63" value="&lt;span style=&quot;font-size: 15px;&quot;&gt;任务诊断&lt;/span&gt;" style="rounded=0;whiteSpace=wrap;html=1;" vertex="1" parent="1">
          <mxGeometry x="460" y="390" width="120" height="47.5" as="geometry" />
        </mxCell>
        <mxCell id="VYYWb6D4NOVtQm_sJtVm-64" value="&lt;span style=&quot;font-size: 15px;&quot;&gt;自助修复&lt;/span&gt;" style="rounded=0;whiteSpace=wrap;html=1;" vertex="1" parent="1">
          <mxGeometry x="610" y="390" width="120" height="47.5" as="geometry" />
        </mxCell>
        <mxCell id="VYYWb6D4NOVtQm_sJtVm-65" value="&lt;font style=&quot;font-size: 15px;&quot;&gt;异常容错&lt;/font&gt;" style="rounded=0;whiteSpace=wrap;html=1;" vertex="1" parent="1">
          <mxGeometry x="460" y="585" width="120" height="47.5" as="geometry" />
        </mxCell>
        <mxCell id="VYYWb6D4NOVtQm_sJtVm-66" value="&lt;span style=&quot;font-size: 15px;&quot;&gt;节点隔离&lt;/span&gt;" style="rounded=0;whiteSpace=wrap;html=1;" vertex="1" parent="1">
          <mxGeometry x="630" y="583.75" width="120" height="47.5" as="geometry" />
        </mxCell>
        <mxCell id="VYYWb6D4NOVtQm_sJtVm-67" value="&lt;font style=&quot;font-size: 16px;&quot;&gt;AI&amp;nbsp;&lt;/font&gt;&lt;span style=&quot;font-size: 16px; background-color: initial;&quot;&gt;Scope&lt;/span&gt;" style="text;html=1;align=center;verticalAlign=middle;whiteSpace=wrap;rounded=0;" vertex="1" parent="1">
          <mxGeometry x="630" y="640" width="120" height="30" as="geometry" />
        </mxCell>
        <mxCell id="VYYWb6D4NOVtQm_sJtVm-68" value="&lt;font style=&quot;font-size: 16px;&quot;&gt;HCS&lt;/font&gt;" style="text;html=1;align=center;verticalAlign=middle;whiteSpace=wrap;rounded=0;" vertex="1" parent="1">
          <mxGeometry x="205" y="757.5" width="70" height="30" as="geometry" />
        </mxCell>
        <mxCell id="VYYWb6D4NOVtQm_sJtVm-74" value="" style="rounded=0;whiteSpace=wrap;html=1;fillColor=#f8cecc;strokeColor=#b85450;" vertex="1" parent="1">
          <mxGeometry x="290" y="840" width="310" height="85" as="geometry" />
        </mxCell>
        <mxCell id="VYYWb6D4NOVtQm_sJtVm-69" value="" style="rounded=0;whiteSpace=wrap;html=1;fillColor=#dae8fc;strokeColor=#6c8ebf;" vertex="1" parent="1">
          <mxGeometry x="290" y="730" width="460" height="85" as="geometry" />
        </mxCell>
        <mxCell id="VYYWb6D4NOVtQm_sJtVm-70" value="&lt;span style=&quot;font-size: 15px;&quot;&gt;容器交付诊断&lt;/span&gt;" style="rounded=0;whiteSpace=wrap;html=1;" vertex="1" parent="1">
          <mxGeometry x="310" y="748.75" width="120" height="47.5" as="geometry" />
        </mxCell>
        <mxCell id="VYYWb6D4NOVtQm_sJtVm-71" value="&lt;span style=&quot;font-size: 15px;&quot;&gt;容器自愈&lt;/span&gt;" style="rounded=0;whiteSpace=wrap;html=1;" vertex="1" parent="1">
          <mxGeometry x="460" y="748.75" width="120" height="47.5" as="geometry" />
        </mxCell>
        <mxCell id="VYYWb6D4NOVtQm_sJtVm-73" value="&lt;font style=&quot;font-size: 15px;&quot;&gt;资源诊断&lt;/font&gt;" style="rounded=0;whiteSpace=wrap;html=1;" vertex="1" parent="1">
          <mxGeometry x="610" y="748.75" width="120" height="45" as="geometry" />
        </mxCell>
        <mxCell id="VYYWb6D4NOVtQm_sJtVm-4" value="&lt;font style=&quot;font-size: 15px;&quot;&gt;故障机诊断&lt;/font&gt;" style="rounded=0;whiteSpace=wrap;html=1;" vertex="1" parent="1">
          <mxGeometry x="310" y="860" width="120" height="45" as="geometry" />
        </mxCell>
        <mxCell id="VYYWb6D4NOVtQm_sJtVm-3" value="&lt;font style=&quot;font-size: 15px;&quot;&gt;网络诊断&lt;/font&gt;" style="rounded=0;whiteSpace=wrap;html=1;" vertex="1" parent="1">
          <mxGeometry x="630" y="830" width="120" height="45" as="geometry" />
        </mxCell>
        <mxCell id="VYYWb6D4NOVtQm_sJtVm-72" value="&lt;font style=&quot;font-size: 15px;&quot;&gt;组网诊断&lt;/font&gt;" style="rounded=0;whiteSpace=wrap;html=1;" vertex="1" parent="1">
          <mxGeometry x="460" y="860" width="120" height="45" as="geometry" />
        </mxCell>
        <mxCell id="VYYWb6D4NOVtQm_sJtVm-75" value="&lt;font style=&quot;font-size: 16px;&quot;&gt;AI Scope&lt;/font&gt;" style="text;html=1;align=center;verticalAlign=middle;whiteSpace=wrap;rounded=0;" vertex="1" parent="1">
          <mxGeometry x="210" y="867.5" width="70" height="30" as="geometry" />
        </mxCell>
        <mxCell id="VYYWb6D4NOVtQm_sJtVm-76" value="&lt;font style=&quot;font-size: 15px;&quot;&gt;磁盘诊断&lt;/font&gt;" style="rounded=0;whiteSpace=wrap;html=1;" vertex="1" parent="1">
          <mxGeometry x="630" y="890" width="120" height="45" as="geometry" />
        </mxCell>
      </root>
    </mxGraphModel>
  </diagram>
</mxfile>
